<svg id="f0b0c855-5043-4ab1-9e97-d12c5964a6c9" data-name="Draw Layer" xmlns="http://www.w3.org/2000/svg" viewBox="0 0 416.17 300.95"><defs><style>.a05a1d0c-a1ee-4bdb-94a3-b9caec14915a{fill:#161616;}</style></defs><title>sleep-neutral</title><path class="a05a1d0c-a1ee-4bdb-94a3-b9caec14915a" d="M168.38,68.16c.31-.41,8.17-13.87,11.9-20.08-6.43,5.88-13.66,12.33-19.37,16.78C128.71,90.15,69.45,72.92,43.8,40.42c.07.1-4.85-6.35-5.23-7.88,4.29,12.54,9.94,23.34,17.24,32.23-.44-.07-10.8,7.57-11.35,13.34-.36,3.65.86,8.18,4.8,7.82,3.15-.28,11.22-14.42,10.12-17.23,5.49,6.24,10,9.56,17.38,13.71-2.67,4.91-6.19,12.23-3.48,16.34,4.86,7.39,10.27-11,10.06-13a90.65,90.65,0,0,0,20.27,6.13c0,.23-3.72,13.66-1.48,17.82,3.6,6.68,5.5,1.69,6.8-3.15.79-2.92,2.3-9.41,1.75-13.6a74.9,74.9,0,0,0,14.9.11c-.5,8.75,2.62,21.07,7.29,17.37,2.61-2.06,1.94-11.76,0-18.46a58.8,58.8,0,0,0,11.79-3.73c1.19,7.44,5.57,15.66,9.83,11.62,2.93-2.78.76-10.45-2.32-15.68a116.59,116.59,0,0,0,10.46-9c-.07,2.78.82,5.56,2.77,6.65C172.39,85.51,172.9,70,168.38,68.16Z" transform="translate(-38.57 -15.29)"/><path class="a05a1d0c-a1ee-4bdb-94a3-b9caec14915a" d="M405.2,185.49c-11.89,5.34-10.4,26.5-6.28,36,4.91,11.32,17.93,21.23,30.71,18s18.3-19.24,17.37-31.15c-.38-4.83-2.21-14.81-8.13-16-5.3-1.12-7.27,3.37-5.83,8.92-4.68-9-16.76-20.63-27.84-15.67Zm8.37,13.7c6.77,2.47,9,9.29,14.29,12,4.66,2.43,7.56,1,6.34-6.93,3.48,4.95,6.11,2.86,5.21,9.33-1.38,10-12.19,13.59-20.56,11-6.69-2.06-15.58-9.48-15.58-17.14,0-6.13,4.1-9.76,10.3-8.32Z" transform="translate(-38.57 -15.29)"/><path class="a05a1d0c-a1ee-4bdb-94a3-b9caec14915a" d="M62.18,199.9C49,210.85,54.6,242.3,73.12,244.79c8.38,1.12,13-6,11.67-14-1.59-9.9-12.3-12.38-10.63-.22-5-.73-13.29-8.55-11.68-14.16C66.32,203,88.29,212.09,96,214.3c4.67,1.35,5.8,3.16,7.64-2.76,2-6.32-2.79-9.6-7.49-12.07-9.94-5.23-24.66-7.2-33.93.43Z" transform="translate(-38.57 -15.29)"/><path class="a05a1d0c-a1ee-4bdb-94a3-b9caec14915a" d="M325.84,282.92a354.21,354.21,0,0,1-75.78,20.16,298.24,298.24,0,0,1-32.12,3c-3.44.13-33.67-1.69-21.77,9.38,2.54,2.36,78.59-.34,121.09-18.16,3.59-1.51,9.52-3.28,11.25-7.1.05-.12.79-9.54-2.67-7.32Z" transform="translate(-38.57 -15.29)"/><path class="a05a1d0c-a1ee-4bdb-94a3-b9caec14915a" d="M447,42.75c1.29-2.82,7.72-21.07,7.72-27.46-16,29.89-39.9,57.33-76.07,57.42a153.08,153.08,0,0,1-57.29-11.47c-10.21-4.58-24.23-12.51-32.61-20.89,8.72,9.59,16.46,19,26.56,26.76-3.54,7.13-7.62,18.25,1.64,15.27,2.19-.71,4.71-5.75,6-10,.78.47,16.12,8.32,23.47,10.94-2.5,8.32-5.13,21.63,2.9,14.12,1.89-1.78,4.14-7.4,5.09-11.57a105.28,105.28,0,0,0,20.25,3.71c-.09,8.13,1.67,17.23,6.43,13.93,2.49-1.73,2.53-7.86,1.51-13.66.68,0,17.54-2,24.48-4.94-.06,7.91,3.86,18.32,8.27,15,3-2.24,1.22-12.43-1.52-18.31A67.85,67.85,0,0,0,426.8,72c2.66,7.66,10.29,15.09,13,6.3,1.06-3.45-2.48-9.93-6.28-13.45.6-.74,5.62-7.58,7.33-10.38,2.81,1.29,5.86,4.1,9.63,2.26C455.57,54.2,451.21,45.34,447,42.75Z" transform="translate(-38.57 -15.29)"/></svg>