<svg id="Component_74_8" data-name="Component 74 – 8" xmlns="http://www.w3.org/2000/svg" width="483.668" height="200" viewBox="0 0 483.668 200">
  <path id="Path_314" data-name="Path 314" d="M99.2,47.16c5.263,8.366,3.162,18.783-4.2,23.821a16.714,16.714,0,0,1-23.083-4.407c-6.555-9.094-6.972-19.792-6.877-30.531.036-3.864,2.2-4.577,5.325-4.132C82.12,33.573,92.008,38.66,99.2,47.16Z" transform="translate(-5.527 -8.026)" fill="#324755" fill-rule="evenodd"/>
  <path id="Path_315" data-name="Path 315" d="M57.751,98.089c9.9,3.046,19.888-1.914,22.983-10.749A17.529,17.529,0,0,0,69.968,65.16C58.961,61,48.017,63.491,37.161,66.52c-3.915,1.086-4.028,3.473-2.73,6.525C39.31,84.49,47.167,93.121,57.751,98.089Z" transform="translate(-16.527 2.91)" fill="#86bcbe" fill-rule="evenodd"/>
  <path id="Path_316" data-name="Path 316" d="M74.545,166.857c9.829-7.784,11.738-21.132,5.061-30.275-6.656-9.12-19.507-11.408-29.477-4.507-11.7,8.105-16.722,20.73-21.167,33.616-1.608,4.639.7,6.407,4.627,7.2C48.336,175.875,62.341,173.981,74.545,166.857Z" transform="translate(-18.367 25.751)" fill="#d97d54" fill-rule="evenodd"/>
  <path id="Path_317" data-name="Path 317" d="M56.412,132.476c11.331-.567,19.753-9.406,19.644-19.644-.116-10.206-8.384-18.649-19.349-18.8C43.833,93.85,33.5,100.5,23.456,107.664c-3.61,2.576-2.849,5.085-.369,7.734C32.377,125.353,43.677,131.308,56.412,132.476Z" transform="translate(-20.985 13.811)" fill="#6d8ca0" fill-rule="evenodd"/>
  <path id="Path_318" data-name="Path 318" d="M133.53,46.734c-.592,10.344-8.726,17.978-18.093,17.8A17.537,17.537,0,0,1,98.4,46.72c-.059-11.772,6.1-21.166,12.7-30.287,2.387-3.285,4.669-2.567,7.077-.284C127.206,24.709,132.556,35.085,133.53,46.734Z" transform="translate(6.181 -14.2)" fill="#d97d54" fill-rule="evenodd"/>
  <path id="Path_319" data-name="Path 319" d="M192.844,83.508c-10.722,6.509-23.9,3.647-30.15-5.8-6.233-9.417-3.9-22.259,6.043-29.2,11.679-8.146,25.265-8.459,38.887-8.132,4.909.115,5.767,2.887,5.142,6.841C210.421,62.095,203.765,74.551,192.844,83.508Z" transform="translate(27.532 -5.044)" fill="#86bcbe" fill-rule="evenodd"/>
  <path id="Path_320" data-name="Path 320" d="M167.029,56.531c-4.488,10.418-15.7,15.241-25.259,11.568-9.524-3.673-14.561-14.355-10.884-24.689,4.315-12.13,14.152-19.506,24.36-26.42,3.687-2.488,5.764-.9,7.383,2.345C168.715,31.515,170.367,44.185,167.029,56.531Z" transform="translate(17.157 -13.65)" fill="#6d8ca0" fill-rule="evenodd"/>
  <path id="Path_321" data-name="Path 321" d="M90.454,170.967V96.424h25.724a48.8,48.8,0,0,1,12.5,1.391,23.879,23.879,0,0,1,8.505,3.969,15.406,15.406,0,0,1,4.871,6.237,21.017,21.017,0,0,1,1.547,8.249,16.307,16.307,0,0,1-.773,5.027,14.527,14.527,0,0,1-2.4,4.484,17.941,17.941,0,0,1-4.124,3.789,24.916,24.916,0,0,1-5.953,2.888q15.362,3.453,15.362,16.6a21.161,21.161,0,0,1-1.8,8.763,19.33,19.33,0,0,1-5.259,6.933,25.136,25.136,0,0,1-8.505,4.563,37.17,37.17,0,0,1-11.548,1.65H90.454Zm13.867-42.273h11.084q7.062,0,10.722-2.578t3.66-8.2q0-5.824-3.3-8.3t-10.31-2.475H104.321Zm0,9.589v21.858h14.074a19.45,19.45,0,0,0,6.469-.928,11.237,11.237,0,0,0,4.176-2.475,9.065,9.065,0,0,0,2.268-3.608,13.633,13.633,0,0,0,.7-4.382,11.627,11.627,0,0,0-.774-4.355,8.15,8.15,0,0,0-2.422-3.3A11.348,11.348,0,0,0,124.581,139a23.465,23.465,0,0,0-6.238-.721Z" transform="translate(3.391 9.862)" fill="#86bcbe"/>
  <path id="Path_322" data-name="Path 322" d="M185.358,96.424v11.033H152.314v20.672h26.033V138.8H152.314v21.084h33.045v11.083H138.344V96.423h47.014Z" transform="translate(20.197 9.863)" fill="#86bcbe"/>
  <path id="Path_323" data-name="Path 323" d="M188.181,97.607h4.381A1.8,1.8,0,0,1,194.469,99l18.4,59.953q.308,1.031.54,2.217t.49,2.475q.257-1.289.515-2.475a18.513,18.513,0,0,1,.62-2.217L235.657,99a2.235,2.235,0,0,1,.723-.981,1.92,1.92,0,0,1,1.237-.412h1.443a1.789,1.789,0,0,1,1.185.386A2.575,2.575,0,0,1,240.968,99l20.62,59.953q.361,1.031.644,2.165c.191.757.369,1.564.54,2.424q.257-1.238.465-2.4a19.154,19.154,0,0,1,.517-2.191L282.158,99a1.843,1.843,0,0,1,.694-.981,2.036,2.036,0,0,1,1.264-.412h4.022L265.2,170.55h-4.744l-21.548-63.3a26.486,26.486,0,0,1-.72-2.629,26.361,26.361,0,0,1-.723,2.629l-21.6,63.3h-4.692Z" transform="translate(37.686 10.278)" fill="#324755"/>
  <path id="Path_324" data-name="Path 324" d="M312.756,97.607v4.381h-38.4v29.488h31.961v4.278H274.351V166.17h38.4v4.381H269.042V97.607Z" transform="translate(66.06 10.278)" fill="#324755"/>
  <path id="Path_325" data-name="Path 325" d="M317.573,166.066h34.59v4.485H312.314V97.607h5.259v68.459Z" transform="translate(81.245 10.278)" fill="#324755"/>
  <path id="Path_326" data-name="Path 326" d="M354.778,166.066h34.59v4.485H349.52V97.607h5.259v68.459Z" transform="translate(94.3 10.278)" fill="#324755"/>
</svg>
